<?xml version="1.0" encoding="UTF-8" standalone="no"?>
<!-- Created with Inkscape (http://www.inkscape.org/) -->

<svg
   xmlns:dc="http://purl.org/dc/elements/1.1/"
   xmlns:cc="http://creativecommons.org/ns#"
   xmlns:rdf="http://www.w3.org/1999/02/22-rdf-syntax-ns#"
   xmlns:svg="http://www.w3.org/2000/svg"
   xmlns="http://www.w3.org/2000/svg"
   xmlns:sodipodi="http://sodipodi.sourceforge.net/DTD/sodipodi-0.dtd"
   xmlns:inkscape="http://www.inkscape.org/namespaces/inkscape"
   id="svg2"
   version="1.1"
   inkscape:version="0.48.2 r9819"
   width="304"
   height="365"
   sodipodi:docname="logo.svg"
   inkscape:export-filename="C:\Users\rogelio\Desktop\logo.png"
   inkscape:export-xdpi="90"
   inkscape:export-ydpi="90">
  <metadata
     id="metadata8">
    <rdf:RDF>
      <cc:Work
         rdf:about="">
        <dc:format>image/svg+xml</dc:format>
        <dc:type
           rdf:resource="http://purl.org/dc/dcmitype/StillImage" />
        <dc:title></dc:title>
      </cc:Work>
    </rdf:RDF>
  </metadata>
  <defs
     id="defs6" />
  <sodipodi:namedview
     pagecolor="#ffffff"
     bordercolor="#666666"
     borderopacity="1"
     objecttolerance="10"
     gridtolerance="10"
     guidetolerance="10"
     inkscape:pageopacity="0"
     inkscape:pageshadow="2"
     inkscape:window-width="640"
     inkscape:window-height="480"
     id="namedview4"
     showgrid="false"
     inkscape:zoom="0.41053452"
     inkscape:cx="152"
     inkscape:cy="347.38627"
     inkscape:window-x="0"
     inkscape:window-y="0"
     inkscape:window-maximized="0"
     inkscape:current-layer="svg2" />
  <path
     style="fill:#f9f9f9"
     d="M 39,345.5 C 39,343.11446 39.271429,343 44.928571,343 51.252534,343 54,341.47369 54,337.96052 c 0,-1.04314 -2.852742,-5.1735 -6.339427,-9.17857 -3.486685,-4.00507 -6.861685,-8.26487 -7.5,-9.46621 -2.778368,-5.22903 -0.119243,-12.59941 5.373726,-14.89452 3.269531,-1.36609 16.539876,-2.01371 17.690272,-0.86332 0.306848,0.30685 0.329364,1.43185 0.05004,2.5 C 62.852192,307.67322 61.872941,308 57.454797,308 51.720515,308 49,309.65136 49,313.13209 c 0,1.09407 3.15,5.62849 7,10.07649 6.621415,7.64988 7,8.35324 7,13.00508 C 63,345.4222 59.511481,348 47.04966,348 39.130023,348 39,347.95962 39,345.5 z m 43.450423,1.0934 c -4.073537,-1.77432 -8.223554,-6.86716 -9.009431,-11.05625 -0.351225,-1.87219 -0.48163,-7.67702 -0.289791,-12.89963 0.281876,-7.67376 0.744386,-10.02504 2.410588,-12.2548 3.734973,-4.99825 6.611875,-6.43397 13.9814,-6.97745 9.007294,-0.66425 11.835901,0.68875 12.267181,5.86772 0.28221,3.38901 0.0843,3.72701 -2.182617,3.72701 -1.613753,0 -2.716591,-0.70454 -3.127015,-1.99768 -0.877198,-2.7638 -4.678444,-3.47891 -8.36339,-1.57335 C 83.631992,311.75878 83,313.73583 83,325.5 c 0,5.84732 0.46334,11.49724 1.029644,12.55539 C 85.658669,341.09925 90.433286,343 96.45034,343 c 5.25297,0 5.54966,0.13365 5.54966,2.5 0,2.46781 -0.10623,2.4995 -8.25,2.46086 -4.572534,-0.0217 -9.609359,-0.63124 -11.299577,-1.36746 z m 37.257097,-0.68328 c -6.50468,-3.43285 -7.70004,-6.60134 -7.70004,-20.41012 0,-13.56135 1.19953,-16.9275 7.1983,-20.19999 5.13706,-2.8024 19.10057,-2.52684 23.93776,0.47239 5.5291,3.42824 6.85646,7.23594 6.85646,19.66857 0,13.15857 -1.65486,17.24535 -8.28228,20.45363 -5.87657,2.8448 -16.63482,2.85239 -22.0102,0.0155 z M 138,339.45305 c 2.37575,-2.37433 2.5,-3.0678 2.5,-13.95305 0,-11.16253 -0.0701,-11.52465 -2.75,-14.20455 -4.09166,-4.09166 -9.94195,-3.88343 -13.85234,0.49305 -2.80132,3.13523 -2.89766,3.58714 -2.89766,13.59242 0,9.05801 0.26678,10.68852 2.13812,13.06754 4.07473,5.18018 10.2651,5.59862 14.86188,1.00459 z M 160,326 c 0,-16.95137 0.28685,-21.99224 1.25,-21.96618 0.6875,0.0186 6.875,5.19104 13.75,11.49432 6.875,6.30327 12.8375,11.46306 13.25,11.46618 0.4125,0.003 0.75,-5.16932 0.75,-11.49432 0,-10.83333 0.11594,-11.5 2,-11.5 1.93939,0 2,0.66667 2,22 0,12.1 -0.26473,22 -0.58829,22 -0.32357,0 -6.48808,-5.4 -13.69892,-12 -7.21085,-6.6 -13.47111,-12 -13.91171,-12 -0.44059,0 -0.80108,5.4 -0.80108,12 0,11.33333 -0.11111,12 -2,12 -1.93939,0 -2,-0.66667 -2,-22 z m 81.77114,2.25 -0.27114,-19.75 -4.75,-0.30479 c -3.93428,-0.25245 -4.75,-0.63885 -4.75,-2.25 C 232,304.1077 232.80281,304 246.5,304 c 13.69719,0 14.5,0.1077 14.5,1.94521 0,1.61115 -0.81572,1.99755 -4.75,2.25 l -4.75,0.30479 -0.27114,19.75 -0.27114,19.75 -4.45772,0 -4.45772,0 -0.27114,-19.75 z M 266,326 l 0,-22 4.5,0 4.5,0 0,22 0,22 -4.5,0 -4.5,0 0,-22 z m -63,2 0,-5 12,0 12,0 0,5 0,5 -12,0 -12,0 0,-5 z M 57.47686,289.03744 c 0.327192,-0.52941 4.74125,-4.4593 9.809017,-8.7331 5.067768,-4.27379 9.852245,-8.38412 10.632172,-9.13406 4.880184,-4.69253 47.785191,-31.33866 68.825261,-42.74389 3.98382,-2.15951 7.24632,-4.29616 7.25,-4.74809 0.004,-0.45194 -6.85581,-4.12101 -15.24331,-8.15349 -43.778919,-21.04773 -74.663099,-30.71094 -84.226924,-26.35337 -6.364619,2.89991 -3.244857,10.62896 9.976924,24.71732 6.604412,7.03728 7.669118,8.4818 4,5.42694 -2.75,-2.28962 -7.912,-7.12231 -11.471112,-10.73932 C 53.469777,204.95937 50.316567,202 50.021755,202 c -0.294812,0 -0.371303,5.18891 -0.169981,11.53092 0.324098,10.20964 -0.40402,21.25916 -1.338395,20.31073 C 48.328256,233.65374 47.659141,228.1 47.026457,221.5 46.393773,214.9 45.003995,205.15431 43.938061,199.84292 41.077404,185.58867 41.218279,184.22645 45.75,182.32208 c 3.706837,-1.55773 8.941489,-1.22528 21.649294,1.37492 l 2.899294,0.59323 -0.717909,-8.89511 C 69.185829,170.5028 68.16026,163.125 67.301636,159 c -1.924434,-9.24537 -1.849712,-12.7369 0.323986,-15.13881 5.588513,-6.17524 34.247648,2.94636 77.577418,24.69125 l 13.65195,6.85118 9.8225,-5.11808 c 25.88768,-13.48895 58.1149,-26.00299 69.66148,-27.04999 4.64687,-0.42137 6.7006,-0.13051 9.42024,1.33411 l 3.47786,1.87295 -0.62868,6.52869 c -0.34578,3.59079 -1.18662,10.51319 -1.86854,15.38313 l -1.23985,8.85443 -11,3.19211 c -20.6007,5.97814 -43.51851,15.1518 -67.71495,27.10528 l -11.71496,5.78739 -11.78504,-5.69534 c -6.48178,-3.13244 -14.42532,-6.91877 -17.65231,-8.41406 l -5.86725,-2.71872 10.86725,-6.14242 c 5.97699,-3.37833 13.90476,-7.62965 17.61726,-9.44739 3.7125,-1.81774 6.75,-3.63662 6.75,-4.04196 0,-0.40535 -6.55285,-3.92889 -14.56189,-7.8301 C 108.94951,152.69134 83.827119,144.72655 77,148.25719 c -4.986843,2.57894 -3.421234,7.94379 5.047102,17.29482 7.536513,8.32208 5.912898,7.85548 -2.797102,-0.80384 l -7.75,-7.7049 0.115134,13.692 c 0.08858,10.53393 0.434555,13.87046 1.5,14.4657 0.761676,0.42554 6.559866,2.63396 12.884866,4.9076 14.33079,5.15148 46.15185,19.2525 59.71501,26.46179 5.61825,2.9863 10.91075,5.42964 11.76111,5.42964 0.85035,0 9.0786,-3.7705 18.28499,-8.37889 27.47635,-13.75367 65.79428,-29.48123 76.91357,-31.56912 5.64298,-1.05959 15.55727,0.0657 17.93027,2.03511 1.83239,1.52075 1.76509,6.78672 -0.197,15.41327 -2.47175,10.86736 -3.11563,58.21267 -1.00637,73.99963 0.88181,6.6 1.87968,13.0125 2.21749,14.25 l 0.61419,2.25 -107.67565,0 C 95.820689,290 57.097097,289.65191 57.47686,289.03744 z m 85.19641,-131.44029 c -9.87561,-4.7927 -12.52148,-6.47614 -11.5,-7.3169 0.7297,-0.6006 6.60576,-3.99123 13.0579,-7.53474 l 11.73117,-6.44275 -14.73117,-7.07029 C 115.7539,117.00454 95.498094,111.28505 92.11335,115.36342 c -1.968378,2.37175 -0.703738,5.82056 4.53379,12.36414 L 101.26744,133.5 95.633719,128.03416 90,122.56832 l -0.128356,9.46584 -0.128356,9.46584 -0.898671,-6 c -0.49427,-3.3 -1.599549,-9.91892 -2.456176,-14.70872 -0.856627,-4.78979 -1.267907,-9.17729 -0.913956,-9.75 0.902441,-1.46018 10.055041,-1.276 16.059835,0.32318 8.06634,2.1482 27.91826,10.35518 41.74262,17.25682 7.02731,3.5083 13.38047,6.37872 14.11813,6.37872 0.73766,0 8.26304,-3.33459 16.72307,-7.41021 18.03846,-8.69003 36.95587,-16.26998 44.2723,-17.73933 3.75784,-0.75469 6.37906,-0.72034 9.51726,0.12469 4.29047,1.1553 4.32527,1.20069 3.7152,4.84554 -0.33872,2.02362 -1.13928,7.5478 -1.77903,12.27595 l -1.16318,8.59663 -7.59034,2.2255 c -12.99474,3.81006 -33.95351,12.0259 -48.98069,19.20044 -7.92656,3.78443 -14.90642,6.84075 -15.51079,6.79181 -0.60438,-0.0489 -6.8709,-2.89018 -13.9256,-6.31387 z M 142.25,123.243 c -5.0875,-2.5625 -9.24653,-4.90297 -9.2423,-5.20104 0.009,-0.61195 4.82278,-3.43951 16.44714,-9.66029 l 7.95483,-4.25703 -9.95483,-4.660075 C 130.9418,91.73446 119.93363,87.78768 113.38684,87.250111 c -3.70768,-0.304445 -6.36656,-0.09194 -6.75715,0.540047 -0.8749,1.415619 1.02529,6.162245 3.68692,9.209842 l 2.18339,2.5 -2.56445,-2.25 c -1.41045,-1.2375 -2.87295,-2.25 -3.25,-2.25 -0.37705,0 -0.74247,2.3625 -0.81205,5.25 l -0.12649,5.25 -0.8769,-6.822083 c -0.48229,-3.752146 -1.32537,-7.660062 -1.8735,-8.684259 -1.72149,-3.216621 -1.17493,-5.732086 1.38506,-6.374603 5.07656,-1.274136 26.21912,6.11166 45.9752,16.060664 l 6.92553,3.487641 13.92097,-6.623571 C 194.17001,85.616304 210.54544,81.096379 213.02587,85 c 0.52422,0.825 0.68789,2.175 0.36372,3 -0.32418,0.825 -1.11316,5.085478 -1.75331,9.46773 l -1.16389,7.96773 -13.4862,4.60061 c -7.4174,2.53033 -19.56119,7.43465 -26.98619,10.89848 -7.425,3.46383 -14.625,6.44854 -16,6.6327 -1.5164,0.20309 -6.1393,-1.49823 -11.75,-4.32425 z m 5,-30.411109 c -4.5375,-2.092653 -8.24843,-4.148414 -8.24652,-4.568358 0.006,-1.224341 24.55156,-14.75634 35.77594,-19.722985 5.65369,-2.501683 12.91894,-5.282364 16.14501,-6.179291 6.33795,-1.762107 11.62341,-1.23128 10.73712,1.078346 -0.28616,0.745722 -0.83243,4.43938 -1.21394,8.208128 L 199.75396,78.5 189.48832,81.827686 c -5.6461,1.830227 -15.60325,5.910988 -22.12698,9.068357 L 155.5,96.636715 147.25,92.831891 z M 115.81841,70.5 c -0.36859,-2.75 -0.97567,-5.992093 -1.34906,-7.204652 -1.33561,-4.337294 5.18436,-4.015876 18.33334,0.903789 7.14224,2.672253 6.06997,3.337431 -1.29516,0.803453 C 123.96763,62.408484 118,62.309037 118,64.777494 c 0,0.977621 0.7564,2.890121 1.68088,4.25 L 121.36176,71.5 119.24692,69.65478 c -2.10292,-1.834826 -2.11665,-1.82356 -2.43659,2 -0.31899,3.812243 -0.3275,3.80234 -0.99192,-1.15478 z M 142,69 c -1.925,-1.053893 -3.05,-1.916169 -2.5,-1.916169 0.55,0 2.575,0.862276 4.5,1.916169 1.925,1.053893 3.05,1.916169 2.5,1.916169 -0.55,0 -2.575,-0.862276 -4.5,-1.916169 z m 10.25,-0.771234 C 149.3625,66.77544 147,65.272116 147,64.888045 c 0,-1.004311 17.20611,-10.851799 25.80106,-14.766596 8.17197,-3.722141 14.5349,-5.004901 15.67507,-3.160079 0.40448,0.654462 0.44411,3.521416 0.0881,6.371009 l -0.64733,5.181079 -5.98464,1.763752 c -3.29155,0.970064 -9.91034,3.643784 -14.70844,5.9416 -4.79809,2.297816 -8.9488,4.284615 -9.2238,4.415108 -0.275,0.130492 -2.8625,-0.951826 -5.75,-2.405152 z M 127.77768,51 c -0.36425,-2.475 -0.24216,-4.923578 0.27131,-5.441284 1.04518,-1.053806 9.87877,0.865747 13.95101,3.031577 3.27014,1.739235 2.44175,1.718871 -2.5,-0.06146 -2.2,-0.792577 -5.28996,-1.460802 -6.86658,-1.484943 -2.51712,-0.03854 -2.80902,0.257187 -2.39445,2.425845 0.25966,1.358355 0.11929,2.251682 -0.31193,1.985169 -0.43123,-0.266513 -0.94224,0.534605 -1.13557,1.780262 -0.22164,1.427976 -0.59623,0.60208 -1.01379,-2.235169 z m 25.85012,-1.130776 -3.87219,-2.042385 3.37219,-2.074261 c 6.29581,-3.872595 21.84849,-10.873648 24.57742,-11.063549 2.96891,-0.2066 3.92069,1.681029 2.89938,5.750225 -0.42887,1.708769 -2.14459,2.850106 -6.83855,4.549169 -3.44633,1.247457 -8.38859,3.335386 -10.98281,4.639841 -2.59421,1.304455 -4.84421,2.351848 -5,2.32754 -0.15578,-0.02431 -2.02573,-0.963269 -4.15544,-2.08658 z M 138.01531,39.309017 C 138.00689,38.103976 137.55,36.839919 137,36.5 c -1.89974,-1.174104 -0.98435,-2.4672 3.25,-4.59103 l 4.25,-2.131678 -2.21587,2.118511 c -3.01119,2.878891 -1.9664,4.814104 3.57326,6.618562 l 4.64261,1.512256 -5.40684,-0.568559 c -3.87105,-0.407062 -5.64198,-0.19781 -6.23469,0.73669 -0.58346,0.919939 -0.83236,0.658471 -0.84316,-0.885735 z"
     id="path2987"
     inkscape:connector-curvature="0" />
</svg>
